<?xml version="1.0" standalone="no"?>
<!DOCTYPE svg PUBLIC "-//W3C//DTD SVG 20010904//EN"
 "http://www.w3.org/TR/2001/REC-SVG-20010904/DTD/svg10.dtd">
<svg version="1.0" xmlns="http://www.w3.org/2000/svg"
 width="852.000000pt" height="524.000000pt" viewBox="0 0 852.000000 524.000000"
 preserveAspectRatio="xMidYMid meet">

<g transform="translate(0.000000,524.000000) scale(0.100000,-0.100000)"
fill="#000000" stroke="none">
<path d="M74 5224 c-20 -9 -39 -31 -50 -57 -18 -40 -19 -99 -19 -1612 0 -1439
1 -1573 16 -1600 40 -72 32 -70 331 -70 l270 0 23 28 c13 15 29 44 34 65 7 22
11 174 12 372 l1 335 25 -150 c13 -82 40 -244 58 -358 39 -235 52 -270 113
-287 60 -16 466 -13 508 5 45 19 71 76 90 198 56 364 74 490 76 523 4 103 16
-139 17 -356 1 -224 9 -311 29 -324 4 -3 6 37 4 89 -5 111 14 210 58 304 l30
63 -1 911 c0 502 -2 908 -5 902 -2 -5 -42 -260 -89 -566 -46 -305 -114 -737
-149 -960 -36 -222 -72 -458 -81 -524 -8 -66 -18 -130 -20 -143 l-5 -22 -218
2 -217 3 -11 100 c-7 55 -26 186 -43 290 -18 105 -68 433 -112 730 -85 576
-157 1044 -164 1060 -2 6 -4 -447 -4 -1005 -1 -558 -4 -1052 -8 -1097 l-6 -83
-223 0 -224 0 0 1570 0 1570 365 0 c201 0 365 -3 365 -7 0 -19 301 -2148 305
-2151 1 -2 6 21 10 50 3 29 53 386 110 793 57 407 116 832 130 944 31 235 49
339 63 353 14 14 312 22 525 13 l187 -7 0 -1224 0 -1224 65 0 65 0 -2 1228
c-3 1163 -4 1229 -21 1269 -33 74 -32 74 -474 71 -427 -3 -418 -2 -449 -67 -9
-18 -22 -75 -30 -125 -38 -258 -154 -1090 -159 -1146 -13 -136 -27 -142 -39
-15 -8 81 -150 1098 -167 1195 -13 74 -27 106 -59 135 -21 19 -38 20 -414 23
-338 2 -395 0 -422 -14z"/>
<path d="M2495 5226 c-45 -20 -64 -47 -75 -106 -6 -33 -10 -491 -10 -1264 l0
-1211 65 -37 65 -37 0 1275 0 1274 249 0 248 0 7 -92 c3 -50 6 -752 6 -1559
l0 -1468 -237 -5 c-131 -2 -261 -7 -289 -11 -33 -4 -60 -3 -74 5 -33 17 -36 5
-12 -45 29 -59 53 -65 294 -65 l197 0 65 36 c36 19 87 39 113 42 48 7 48 7 55
54 5 26 7 739 6 1585 -3 1441 -4 1540 -20 1573 -33 65 -34 65 -343 67 -218 2
-287 0 -310 -11z"/>
<path d="M3354 5230 c-34 -13 -62 -57 -74 -113 -13 -63 -10 -3123 4 -3150 13
-26 32 -21 46 13 7 17 23 39 36 49 l24 19 2 1538 3 1539 319 0 319 0 92 -360
c51 -198 137 -533 193 -745 56 -212 118 -452 139 -535 l38 -150 3 898 2 897
230 0 230 0 0 -1445 0 -1445 23 0 c12 0 39 -3 60 -6 l37 -7 -2 1459 c-3 1575
0 1487 -56 1529 -25 18 -45 20 -272 23 -289 4 -310 0 -343 -61 -22 -41 -22
-50 -27 -472 -3 -236 -8 -421 -12 -410 -4 11 -55 205 -114 430 -58 226 -116
428 -128 450 -15 28 -32 44 -56 52 -41 14 -682 17 -716 3z"/>
<path d="M5263 5224 c-18 -9 -40 -28 -50 -43 -17 -25 -18 -100 -21 -1508 -2
-1059 1 -1483 9 -1483 6 0 30 -14 55 -30 l44 -31 0 1118 c0 615 3 1290 7 1501
l6 382 256 -2 256 -3 3 -1439 2 -1438 31 6 c17 3 42 6 55 6 l24 0 -2 1443 c-3
1393 -4 1443 -22 1473 -38 63 -46 64 -348 64 -228 0 -278 -3 -305 -16z"/>
<path d="M3851 3115 l0 -1110 40 -43 c22 -23 42 -42 44 -42 2 0 10 10 17 23
10 17 14 171 18 686 l5 663 150 -569 150 -570 50 16 c27 8 52 16 54 17 4 3 2
11 -211 814 -88 333 -195 745 -239 915 l-78 310 0 -1110z"/>
<path d="M7618 3148 c-14 -10 -20 -40 -28 -143 -12 -162 -30 -576 -30 -712 0
-57 -3 -103 -6 -103 -3 0 -18 8 -32 19 -39 27 -116 51 -165 51 -142 0 -229
-82 -293 -275 -110 -330 -351 -801 -469 -917 -43 -43 -72 -55 -89 -38 -29 29
2 485 59 887 32 223 32 226 -6 254 -48 34 -142 59 -225 59 l-73 0 -10 -37 c-5
-21 -13 -67 -16 -103 -10 -97 -11 -98 -48 -63 -114 110 -290 111 -390 4 -54
-58 -78 -102 -107 -201 -56 -185 -258 -613 -369 -782 -71 -107 -140 -178 -173
-178 -85 0 -73 267 38 903 26 145 34 214 28 225 -6 9 -37 29 -70 46 -50 25
-73 31 -151 34 l-93 4 -11 -28 c-17 -46 -27 -110 -39 -250 -37 -444 -53 -539
-111 -665 -40 -87 -85 -131 -135 -133 -58 -2 -69 28 -68 184 1 132 30 332 85
594 34 161 35 157 -60 202 -69 33 -218 47 -239 22 -16 -19 -37 -128 -52 -263
-17 -157 -97 -362 -202 -520 -47 -70 -139 -167 -186 -197 l-34 -21 -59 59
c-57 56 -59 60 -59 109 0 67 25 303 51 497 12 86 19 163 16 170 -3 8 -35 29
-72 47 -56 28 -83 35 -154 39 -69 4 -89 2 -99 -11 -11 -13 -32 -144 -32 -199
0 -14 -13 -9 -59 25 -72 54 -132 72 -211 64 -171 -15 -280 -186 -297 -464 -9
-148 30 -350 88 -465 43 -84 124 -147 190 -148 63 0 133 32 184 84 28 28 58
62 66 75 15 24 16 18 23 -95 22 -404 115 -670 260 -747 80 -42 224 -20 294 46
66 61 97 178 89 338 -6 148 -33 244 -107 394 l-60 120 23 18 c125 101 200 191
277 337 l45 85 3 -40 c16 -247 74 -404 166 -446 133 -60 290 19 382 194 l38
72 12 -95 c19 -152 51 -254 96 -311 37 -46 135 -63 203 -35 98 41 247 264 425
636 40 85 77 159 80 163 4 4 13 -27 19 -70 45 -283 157 -439 300 -418 92 14
165 67 215 155 28 49 28 49 46 -58 15 -90 60 -184 107 -219 45 -35 142 -44
191 -19 128 66 287 315 484 756 l15 35 12 -75 c44 -272 143 -430 269 -430 57
0 133 31 178 72 40 37 104 144 104 175 0 7 3 13 8 13 4 0 13 -33 19 -72 17
-105 58 -228 93 -276 75 -104 187 -96 302 22 101 103 307 478 447 812 52 125
62 177 36 188 -28 10 -42 -5 -70 -77 -15 -40 -57 -137 -92 -217 -199 -448
-393 -724 -443 -631 -24 45 -33 229 -26 546 8 399 25 704 72 1261 l7 82 -76
36 c-59 29 -91 38 -154 42 -57 4 -83 2 -95 -8z m-120 -1062 c59 -31 64 -44 71
-198 7 -162 -8 -276 -53 -411 -30 -89 -62 -141 -103 -168 -88 -58 -142 19
-163 231 -23 221 21 420 111 510 51 50 89 61 137 36z m-1357 -159 c65 -43 72
-73 60 -265 -16 -258 -64 -419 -146 -490 -90 -80 -151 -8 -175 209 -29 257 36
492 155 557 32 18 69 14 106 -11z m-2776 -303 c48 -31 57 -64 56 -206 -2 -193
-52 -413 -116 -509 -30 -47 -82 -75 -119 -65 -34 8 -72 83 -86 167 -14 92 -12
285 4 372 24 123 87 231 151 258 27 12 78 4 110 -17z m405 -646 c0 -4 -11 -8
-25 -8 -21 0 -25 5 -25 32 l0 31 25 -23 c14 -13 25 -27 25 -32z m94 -126 c91
-150 144 -341 133 -486 -9 -131 -71 -246 -134 -246 -86 0 -126 146 -145 522
-6 131 -8 241 -5 245 7 6 67 20 99 22 10 1 30 -21 52 -57z"/>
<path d="M2113 2506 c-132 -33 -247 -128 -306 -253 -29 -62 -32 -78 -35 -184
-7 -216 42 -312 359 -709 243 -304 296 -392 309 -514 15 -131 -14 -233 -84
-293 -48 -43 -98 -58 -191 -58 -66 0 -90 5 -136 26 -149 70 -219 227 -190 430
14 96 9 114 -25 107 -30 -5 -47 -56 -52 -158 -12 -253 120 -450 337 -500 33
-8 91 -11 152 -8 92 5 106 8 183 46 105 52 183 133 235 242 32 68 36 85 39
176 3 79 0 120 -17 185 -35 142 -83 225 -341 599 -90 130 -160 265 -186 360
-12 42 -18 102 -18 170 -1 94 2 110 24 150 60 106 169 121 252 33 34 -35 58
-92 58 -137 0 -51 16 -86 40 -86 35 0 46 41 32 123 -20 117 -72 185 -173 232
-70 31 -188 41 -266 21z"/>
<path d="M2303 2170 c0 -47 2 -66 4 -42 2 23 2 61 0 85 -2 23 -4 4 -4 -43z"/>
<path d="M5370 1935 l0 -56 86 3 86 3 19 50 c10 28 19 51 19 53 0 1 -47 2
-105 2 l-105 0 0 -55z"/>
</g>
</svg>
