<?xml version="1.0" standalone="no"?>
<!DOCTYPE svg PUBLIC "-//W3C//DTD SVG 20010904//EN"
 "http://www.w3.org/TR/2001/REC-SVG-20010904/DTD/svg10.dtd">
<svg version="1.0" xmlns="http://www.w3.org/2000/svg"
 width="150.000000pt" height="150.000000pt" viewBox="0 0 150.000000 150.000000"
 preserveAspectRatio="xMidYMid meet">

<g transform="translate(0.000000,150.000000) scale(0.100000,-0.100000)"
fill="#000000" stroke="none">
<path d="M1091 1132 l-24 -4 5 -300 c4 -203 9 -303 17 -311 8 -8 11 -8 11 3 0
7 3 11 6 8 3 -4 -3 -21 -12 -40 l-18 -33 -8 50 c-5 28 -6 69 -4 92 4 31 2 43
-10 47 -26 10 -34 7 -34 -12 0 -15 -6 -17 -35 -14 -24 3 -35 0 -36 -9 -1 -8
-5 6 -10 31 -5 25 -24 104 -44 175 l-35 130 3 -212 c3 -129 1 -213 -5 -213 -5
0 -8 17 -6 38 2 31 0 37 -18 40 -19 3 -22 -3 -28 -69 -4 -39 -9 -76 -10 -83
-2 -6 -1 -8 1 -3 9 15 23 6 23 -13 0 -19 -2 -20 -28 -6 l-28 15 4 342 c3 251
2 340 -7 335 -6 -4 -11 -34 -11 -67 0 -38 -4 -58 -10 -54 -5 3 -10 32 -10 63
0 41 -3 53 -10 42 -12 -19 -13 -487 -1 -494 8 -5 5 -42 -5 -75 -3 -10 -7 -11
-18 -1 -11 8 -20 9 -35 0 -17 -8 -21 -8 -21 4 0 8 -9 18 -20 21 -11 4 -18 11
-14 16 7 12 7 540 -1 547 -3 3 -5 -50 -5 -117 0 -94 -3 -122 -12 -119 -9 3
-15 39 -19 114 -3 72 -6 15 -7 -168 -2 -241 0 -278 13 -278 8 0 15 -5 15 -11
0 -12 -115 -7 -128 5 -3 4 -5 82 -5 174 l2 167 -19 -119 c-10 -65 -16 -125
-13 -132 4 -11 -2 -13 -24 -8 -40 8 -75 -22 -77 -66 -1 -18 -7 -35 -14 -38
-17 -5 8 -48 63 -102 25 -25 45 -53 45 -63 0 -14 5 -17 18 -13 14 6 13 3 -4
-14 -18 -18 -24 -20 -47 -9 -15 7 -27 18 -27 25 0 7 -9 18 -20 24 -18 10 -20
8 -20 -18 0 -41 37 -72 84 -72 31 0 45 7 73 36 29 31 38 35 67 30 24 -5 36
-15 49 -41 9 -19 27 -41 40 -50 53 -35 108 27 89 99 l-10 36 49 0 c27 0 58 -5
68 -12 26 -16 67 3 83 37 10 23 16 25 57 21 25 -3 62 -8 82 -11 33 -7 39 -4
64 28 28 34 30 35 84 30 31 -3 62 -9 70 -13 9 -5 25 -1 40 8 27 18 81 128 81
166 0 22 -3 24 -22 17 -12 -4 -27 -23 -33 -42 -7 -19 -18 -34 -26 -34 -11 0
-15 24 -19 110 -4 83 -9 116 -22 135 -15 20 -18 47 -18 167 0 108 -3 143 -12
143 -13 0 -13 -7 -5 -252 2 -61 -1 -78 -12 -78 -11 0 -12 -14 -7 -74 l7 -75
-28 2 c-20 2 -30 -4 -39 -23 -18 -39 -27 -83 -14 -75 5 3 10 2 10 -4 0 -5 3
-16 6 -24 3 -9 -3 -16 -16 -20 -17 -4 -20 -2 -14 15 4 15 3 18 -7 13 -9 -6
-10 -2 -4 16 4 13 10 146 12 296 5 241 7 272 22 276 18 5 -21 4 -58 -1z m135
-519 c8 -42 -5 -88 -26 -88 -20 0 -34 64 -21 98 15 39 39 34 47 -10z m-806 -3
c12 -8 13 -13 3 -30 -7 -11 -13 -29 -13 -40 0 -30 -17 -24 -29 11 -7 21 -7 37
0 50 11 21 17 23 39 9z m597 -65 c-4 -23 -8 -47 -10 -55 -2 -8 -2 -12 0 -7 8
13 21 7 26 -12 4 -17 2 -18 -24 -9 -22 7 -31 19 -39 49 -17 61 7 112 38 86 10
-8 12 -24 9 -52z m294 -14 c-16 -29 -31 -26 -31 5 0 14 4 23 10 19 6 -3 10 -1
10 6 0 10 3 10 11 2 8 -8 8 -17 0 -32z m-63 -26 c-9 -9 -30 14 -23 25 6 9 10
8 17 -4 6 -10 8 -19 6 -21z m-658 -17 c0 -6 -7 -7 -15 -4 -10 4 -19 -2 -25
-17 -9 -22 -9 -22 -9 4 -1 33 18 53 36 38 7 -7 13 -16 13 -21z m354 16 c8 -21
8 -21 -12 -26 -15 -4 -18 -1 -14 18 5 28 17 31 26 8z m-215 -66 c1 -5 -8 -8
-19 -8 -11 0 -20 5 -20 12 0 6 -6 4 -13 -7 -17 -22 -37 -12 -37 18 0 20 1 20
13 2 10 -13 16 -15 21 -6 4 6 12 9 17 6 5 -4 12 2 16 11 6 16 7 16 14 -2 4
-10 8 -22 8 -26z m155 28 c15 6 15 3 5 -20 -16 -33 -33 -29 -37 10 -2 19 0 25
6 16 5 -7 16 -10 26 -6z m-366 -60 c11 -24 11 -28 -3 -23 -8 4 -15 1 -16 -6 0
-7 -7 3 -15 22 -13 28 -13 36 -2 42 15 9 20 5 36 -35z m55 11 c4 3 7 -1 7 -10
0 -22 -20 -33 -31 -16 -14 23 -11 43 4 30 8 -6 17 -8 20 -4z m113 -14 c-10
-10 -19 5 -10 18 6 11 8 11 12 0 2 -7 1 -15 -2 -18z m-2 -65 c1 -24 -3 -45 -9
-47 -13 -5 -39 85 -30 107 11 29 39 -12 39 -60z m-84 35 c0 -20 -3 -24 -11
-16 -7 7 -9 19 -6 27 10 24 17 19 17 -11z"/>
<path d="M985 510 c3 -5 8 -10 11 -10 2 0 4 5 4 10 0 6 -5 10 -11 10 -5 0 -7
-4 -4 -10z"/>
<path d="M660 341 c0 -6 5 -13 10 -16 6 -3 10 1 10 9 0 9 -4 16 -10 16 -5 0
-10 -4 -10 -9z"/>
<path d="M147 1113 c-4 -7 -7 -143 -5 -303 l2 -290 55 1 c47 0 52 2 31 10 -13
6 -35 7 -47 4 l-23 -5 -2 297 c-2 164 -7 293 -11 286z"/>
<path d="M967 1103 c-4 -3 -7 -28 -7 -54 0 -41 -3 -47 -17 -42 -13 5 -15 3 -9
-13 4 -10 12 -41 17 -69 23 -127 27 -122 28 33 1 83 0 152 -2 152 -2 0 -7 -3
-10 -7z"/>
<path d="M321 984 c0 -11 3 -14 6 -6 3 7 2 16 -1 19 -3 4 -6 -2 -5 -13z"/>
<path d="M251 738 c-1 -108 3 -179 9 -183 6 -3 10 -1 10 6 0 8 4 8 15 -1 13
-11 15 -7 14 26 0 22 -11 104 -23 184 l-24 145 -1 -177z"/>
<path d="M372 887 c-1 -9 -7 -25 -13 -36 -8 -11 -9 -32 -4 -57 l8 -39 9 45 c4
25 7 59 5 75 -2 17 -5 22 -5 12z"/>
<path d="M782 500 c0 -14 2 -19 5 -12 2 6 2 18 0 25 -3 6 -5 1 -5 -13z"/>
</g>
</svg>
