<?xml version="1.0" encoding="UTF-8"?>
<!DOCTYPE svg PUBLIC "-//W3C//DTD SVG 1.1//EN" "http://www.w3.org/Graphics/SVG/1.1/DTD/svg11.dtd">
<!-- Creator: CorelDRAW -->
<?xml-stylesheet href="ms-logo.css" type="text/css"?>
<svg xmlns="http://www.w3.org/2000/svg" xml:space="preserve" width="72.139mm" height="44.3812mm" version="1.1" style="shape-rendering:geometricPrecision; text-rendering:geometricPrecision; image-rendering:optimizeQuality; fill-rule:evenodd; clip-rule:evenodd"
viewBox="0 0 6814 4192"
 xmlns:xlink="http://www.w3.org/1999/xlink"
 xmlns:xodm="http://www.corel.com/coreldraw/odm/2003">
 <g id="Capa_x0020_1">
  <metadata id="CorelCorpID_0Corel-Layer"/>
  <path class="fil0" d="M0 128l0 2431c0,67 32,128 96,128l368 0c117,0 88,-191 88,-280 0,-123 0,-245 0,-368l86 538c10,55 33,110 98,110l352 0c104,0 105,-187 119,-281 11,-79 49,-291 49,-351l8 528c3,34 18,62 36,81 -32,-165 4,-342 126,-463 22,-22 37,-39 63,-57 101,-65 234,-104 359,-85l0 -1916c0,-67 -21,-144 -96,-144l-584 0c-103,0 -101,143 -113,231 -14,100 -28,203 -43,309 -11,77 -83,553 -83,620l-8 0c0,-56 -114,-829 -127,-921 -13,-94 -13,-239 -113,-239l-584 0c-64,0 -96,60 -96,128zm1847 2425c0,-3 0,-7 0,-10l0 -152 -8 0c-1,63 -8,41 0,119 2,14 4,28 7,42z"/>
  <path class="fil0" d="M2615 136l0 2407c0,31 3,63 13,87 9,1 18,1 27,1 22,-95 146,-118 226,-107 59,8 87,17 133,36 69,28 108,62 128,104 14,-13 25,-29 30,-44 10,-34 3,-1001 3,-1060 1,2 2,2 3,5 0,3 2,4 3,5l230 874c2,9 4,19 7,29 159,-82 308,47 366,62 9,-18 11,-31 21,-51 22,-41 82,-85 131,-85 41,0 86,4 128,12l0 -2299c0,-29 -9,-56 -22,-74 -9,-11 -42,-38 -58,-38l-384 0c-129,0 -96,217 -96,336 0,147 0,293 0,440 -1,-2 -2,-6 -3,-5 0,1 -2,-4 -3,-5 -16,-42 10,31 -4,-12l-157 -603c-20,-75 -29,-150 -122,-150l-504 0c-63,0 -96,69 -96,136z"/>
  <path class="fil1 str0" d="M1734 2057l1 -1952c-117,0 -467,-15 -557,4 -29,129 -44,301 -63,437l-125 890c-11,75 -21,149 -32,225 -11,75 -19,191 -39,218l-250 -1779 -559 -1 -3 2486 338 1c14,-55 4,-1772 5,-1882 24,29 190,1201 222,1406 24,151 58,326 71,476l329 0c30,-257 105,-664 146,-946l126 -826c3,-19 5,-36 8,-55 6,-39 2,-37 16,-55l1 1568c16,-25 36,-49 58,-70 22,-22 37,-39 63,-57 71,-46 157,-78 245,-87z"/>
  <path class="fil1 str0" d="M3089 788c14,107 323,1243 429,1658 118,-5 219,77 265,89 9,-18 11,-31 21,-51 22,-41 82,-85 131,-85 8,0 16,0 24,0l0 -2299 -351 0 0 1488c-24,-33 -85,-300 -101,-361 -33,-128 -63,-248 -97,-375 -45,-169 -162,-604 -191,-749l-493 0 0 2444c47,-24 109,-29 155,-22 59,8 87,17 133,36 19,8 35,16 50,24l5 0 0 -1816c18,10 10,1 19,19z"/>
  <path class="fil0" d="M1927 144l0 1937c7,3 14,6 21,9 54,25 68,38 110,74 38,32 53,66 74,110 120,247 -79,400 -203,308 7,55 31,106 94,106l330 0c4,-3 8,-6 13,-9 64,-44 111,-55 158,-55 9,-25 12,-53 12,-79l0 -2399c0,-39 -4,-73 -20,-100 -14,-23 -44,-44 -76,-44l-416 0c-29,0 -63,24 -76,44 -16,25 -20,63 -20,100z"/>
  <path class="fil0" d="M4151 96l0 2341c10,4 20,9 29,14 122,69 126,132 108,237l147 0c24,-72 43,-126 90,-185 77,-96 152,-117 225,-118l0 -2272c0,-67 -52,-112 -80,-112l-432 0c-45,0 -88,53 -88,96z"/>
  <path class="fil2" d="M2083 2588l344 2c12,-58 9,-2449 0,-2490l-392 -2 -3 2044c8,6 16,14 27,22 38,32 53,66 74,110 74,152 27,269 -49,314z"/>
  <path class="fil1 str0" d="M4294 2587l179 0c13,-29 30,-56 53,-85 41,-52 82,-82 122,-99l0 -2303 -393 0 -1 2405c24,26 36,52 40,82z"/>
  <path class="fil1 str0" d="M2093 2582l332 0 -1 -2476 -384 0 0 2042 19 16c38,32 53,66 74,110 71,146 30,259 -40,308z"/>
  <path class="fil3" d="M3089 788c-9,-19 -1,-9 -19,-19l0 1816 -5 0 6 3c2,0 3,-1 5,-1 11,-81 2,-1427 2,-1683 0,-19 0,-37 -1,-56 0,-4 0,-29 1,-32 6,-33 2,-14 12,-28zm-363 1759l0 -2444 493 0c-36,-19 -479,-8 -497,-4 -10,42 -13,2138 -3,2451 2,-1 4,-2 6,-3z"/>
  <path class="fil2" d="M1740 2057l3 -1957 -536 -4c-44,5 -18,-3 -29,14 90,-20 441,-4 557,-4l-1 1952 7 -1z"/>
  <path class="fil4" d="M1827 3880c-93,10 -175,-4 -246,-44 -52,-29 -93,-72 -125,-129 -28,-51 -45,-105 -51,-162 -7,-61 -1,-123 18,-185 4,-13 13,-21 27,-22 4,-1 8,0 12,2 13,4 21,12 22,26 0,4 0,8 -2,12 -16,53 -22,107 -16,160 11,102 53,175 124,219 50,31 108,42 174,35 54,-6 95,-22 124,-49 29,-27 47,-61 56,-103 9,-42 11,-87 5,-135 -4,-38 -18,-78 -43,-121 -24,-43 -54,-88 -90,-135 -36,-47 -75,-96 -116,-145 -45,-55 -89,-110 -131,-166 -43,-55 -79,-111 -108,-165 -30,-55 -47,-108 -53,-159 -14,-129 14,-234 85,-315 63,-72 141,-113 235,-124 57,-6 111,0 160,19 50,19 88,50 117,94 19,29 31,65 36,106 2,20 3,41 1,64 -2,17 -11,27 -29,29 -12,1 -21,-3 -27,-13 -3,-4 -4,-10 -5,-16l-3 -48c-5,-45 -22,-82 -53,-111 -30,-29 -63,-41 -100,-37 -24,2 -46,13 -65,30 -19,18 -34,44 -43,78 -9,35 -11,80 -5,135 7,59 21,114 44,166 23,52 50,103 82,152 32,49 66,97 101,145 54,72 102,146 146,222 44,76 71,159 80,248 9,79 -3,151 -34,214 -32,64 -75,116 -130,156 -55,40 -114,63 -177,70z"/>
  <path id="_1" class="fil4" d="M2974 3416c15,-2 29,-5 42,-9 -13,-15 -27,-28 -41,-41l-2 50zm76 757c-165,18 -267,-153 -307,-512 -7,-66 -12,-134 -14,-203 -40,90 -105,140 -192,149 -46,5 -85,-10 -119,-45 -33,-34 -60,-81 -81,-140 -20,-59 -34,-122 -41,-190 -13,-118 0,-225 40,-321 42,-104 107,-161 193,-170 40,-5 80,1 119,18 38,16 71,41 98,73 8,-90 13,-145 17,-162 4,-15 12,-23 26,-25 95,-11 176,10 243,63 6,5 9,12 10,19l0 9c-6,30 -15,97 -28,199 -12,102 -24,221 -33,355 35,26 67,57 97,93 131,-74 240,-243 327,-508 5,-12 13,-20 26,-21 4,0 9,0 13,2 13,5 20,13 21,26 0,4 0,8 -2,13 -87,276 -203,455 -347,538 80,120 127,245 141,376 8,75 4,142 -12,200 -27,98 -92,153 -194,165zm39 -80c25,-3 45,-17 62,-44 16,-26 28,-56 36,-89 8,-33 12,-62 12,-87 -1,-18 -2,-37 -4,-55 -14,-126 -60,-246 -137,-360 -25,9 -50,15 -78,18l-8 1c-2,146 3,270 13,371 19,168 53,249 103,244zm-526 -575c48,-5 87,-51 117,-138 22,-63 38,-131 47,-205 2,-71 4,-138 8,-200 -4,-33 -18,-59 -41,-77 -24,-19 -47,-27 -68,-25 -29,3 -57,23 -85,59 -28,36 -48,89 -62,160 -13,71 -15,160 -3,268 3,26 8,51 15,76 8,25 17,45 30,61 12,16 26,23 41,21z"/>
  <path id="_2" class="fil4" d="M4066 3627c-33,4 -62,-3 -89,-19 -53,-30 -88,-124 -107,-282l-7 -66c-15,39 -34,75 -57,109 -23,33 -49,60 -80,82 -31,22 -66,34 -107,39 -124,14 -197,-83 -219,-289 -9,-80 -9,-175 -1,-284 17,-227 38,-342 64,-345 95,-11 176,10 243,63 6,5 9,12 10,19 0,4 -3,22 -10,55 -24,105 -44,211 -60,317 -20,125 -26,219 -20,280 1,12 5,29 9,51 5,22 20,32 44,29 46,-5 85,-50 118,-134 25,-65 42,-138 50,-220 8,-82 15,-154 19,-215 12,-195 31,-294 55,-297 95,-10 176,11 243,63 6,5 9,12 10,19 0,1 -7,46 -23,133 -64,348 -90,576 -78,686 5,49 19,73 40,70 25,-2 54,-25 87,-69 62,-80 130,-200 205,-360 64,-137 107,-241 130,-310 4,-12 13,-19 25,-21 4,-1 9,0 13,1 13,5 21,14 22,27 2,17 -37,113 -117,288 -57,126 -120,248 -192,365 -17,27 -36,57 -58,88 -55,77 -110,119 -166,125z"/>
  <path id="_3" class="fil4" d="M5180 3489c-35,4 -65,0 -88,-11 -23,-11 -45,-31 -64,-58 -30,-44 -51,-118 -63,-221 -38,101 -105,157 -199,167 -46,5 -86,-10 -119,-45 -33,-34 -60,-81 -81,-140 -20,-59 -34,-122 -42,-190 -13,-118 1,-225 40,-321 42,-104 107,-161 193,-171 41,-4 80,1 119,18 39,16 71,41 97,73 8,-76 15,-130 20,-162 3,-15 12,-23 26,-25 56,-6 110,-1 159,17 60,21 92,43 94,66 1,12 -2,39 -9,81 -16,88 -33,222 -50,400 -18,187 -24,310 -18,368 3,26 9,39 17,38 44,-5 105,-77 183,-217 57,-101 105,-197 145,-289 48,-110 79,-187 95,-233 4,-12 13,-20 26,-21 4,0 8,0 13,2 13,4 20,13 21,26 2,15 -31,99 -98,250 -67,152 -129,275 -186,370 -88,145 -165,221 -232,228zm-388 -212c66,-7 116,-93 149,-258 7,-34 12,-87 15,-159 1,-34 2,-68 4,-100 1,-13 0,-26 0,-40 -1,-14 -6,-26 -13,-38 -8,-11 -16,-21 -27,-28 -23,-17 -44,-25 -64,-22 -29,4 -58,23 -85,59 -27,36 -48,90 -62,160 -14,71 -15,161 -3,269 3,26 8,51 15,76 7,25 17,45 29,61 12,16 26,23 41,21z"/>
  <path id="_4" class="fil4" d="M5888 3159c50,-5 90,-54 121,-147 22,-66 37,-136 45,-209l1 -1c-5,-78 -9,-156 -11,-237 -11,-18 -26,-31 -43,-40 -17,-9 -34,-13 -48,-12 -29,4 -58,23 -85,59 -28,36 -48,89 -62,160 -14,71 -15,160 -3,268 3,26 8,51 16,76 8,25 18,45 30,61 12,16 25,23 40,21zm387 219c-28,3 -56,-6 -83,-26 -51,-39 -89,-146 -115,-320 -10,36 -24,70 -41,101 -17,31 -40,57 -69,78 -28,21 -64,33 -105,38 -47,5 -86,-10 -119,-45 -33,-34 -60,-81 -80,-140 -20,-59 -34,-122 -42,-190 -13,-119 0,-226 39,-321 42,-104 107,-161 193,-170 68,-7 130,13 188,61 0,-190 4,-357 12,-500 8,-143 14,-227 19,-254 3,-15 12,-24 25,-25 94,-10 175,11 243,63 6,5 10,12 10,19l0 10c-5,30 -12,99 -21,208 -23,285 -37,554 -43,806 -4,181 -2,314 7,397 6,59 17,88 32,87 25,-3 55,-26 88,-69 61,-79 129,-199 204,-360 63,-135 106,-239 130,-310 4,-13 13,-20 26,-21 4,-1 9,0 13,1 13,5 20,13 21,26 2,19 -39,121 -124,306 -61,134 -129,260 -204,379 -69,108 -138,165 -208,173z"/>
 </g>
</svg>
